<svg height="512" viewBox="0 0 512 512" width="512" xmlns="http://www.w3.org/2000/svg"><path d="M512.619 432c0 44.182-35.816 80-80 80h-352c-44.183 0-80-35.818-80-80V80c0-44.183 35.817-80 80-80h352c44.184 0 80 35.817 80 80v352z" fill="#F7F7F7"/><path d="M512.618 432v-53.52l-129.34-129.34-19.568 19.57-53.63-53.63-178.14 178.14L250.721 512h181.897c44.184 0 80-35.818 80-80z" fill="#E5E5E5"/><path fill="none" d="M275.17 255.827l43.644-43.65h-.005l-43.639 43.65-139.31-139.29h-.012l139.308 139.306-139.525 139.542 139.525-139.542 43.85 43.846h.019z"/><linearGradient gradientTransform="rotate(45.001 -166.734 -571.97)" gradientUnits="userSpaceOnUse" id="a" x1="702.4" x2="518.466" y1="-286.26" y2="-401.374"><stop offset="0" stop-color="#d6ffa1"/><stop offset=".326" stop-color="#93e2a7"/><stop offset="1" stop-color="#00a3b5"/></linearGradient><path d="M318.809 212.177l-170.084-93.51c-4.821-2.641-9.266-3.257-12.865-2.131l139.31 139.291 43.639-43.65z" fill="url(#a)"/><linearGradient gradientTransform="rotate(45.001 -166.734 -571.97)" gradientUnits="userSpaceOnUse" id="b" x1="595.453" x2="833.936" y1="-384.596" y2="-322.253"><stop offset="0" stop-color="#ff177b"/><stop offset=".672" stop-color="#ffa976"/><stop offset="1" stop-color="#ffec73"/></linearGradient><path d="M319.025 299.689l58.059-31.924c11.777-6.49 11.777-17.076 0-23.542l-58.27-32.046-43.645 43.65 43.856 43.862z" fill="url(#b)"/><linearGradient gradientTransform="rotate(45.001 -166.734 -571.97)" gradientUnits="userSpaceOnUse" id="c" x1="728.582" x2="469.982" y1="-198.935" y2="-351.08"><stop offset="0" stop-color="#63ffd4"/><stop offset=".485" stop-color="#32a0ba"/><stop offset=".835" stop-color="#1262a9"/><stop offset="1" stop-color="#064aa2"/></linearGradient><path d="M135.848 116.537c-5.17 1.621-8.526 6.856-8.526 14.778l.038 249.352c0 7.83 3.242 12.998 8.272 14.719l139.525-139.542-139.309-139.307z" fill="url(#c)"/><linearGradient gradientTransform="rotate(45.001 -166.734 -571.97)" gradientUnits="userSpaceOnUse" id="d" x1="822.47" x2="663.242" y1="-319.742" y2="-109.967"><stop offset="0" stop-color="#ff4521"/><stop offset=".341" stop-color="#d43e65"/><stop offset=".793" stop-color="#9f36b9"/><stop offset="1" stop-color="#8a33db"/></linearGradient><path d="M135.631 395.385c3.623 1.225 8.158.662 13.093-2.055l170.281-93.641-43.85-43.847-139.524 139.543z" fill="url(#d)"/></svg>