<svg id="Layer_1" xmlns="http://www.w3.org/2000/svg" width="67" height="32" viewBox="0 0 67 32"><title>BeLive-logo</title><defs><style>@import url(https://fonts.googleapis.com/css?family=Audiowide);text{font-family:&apos;Audiowide&apos;,cursive}</style></defs><path fill="#FFF" d="M13.197 29.31c7.174 0 12.99-5.72 12.99-12.778 0-7.056-5.815-12.777-12.99-12.777S.207 9.476.207 16.531c0 7.059 5.815 12.779 12.99 12.779"/><path fill-rule="evenodd" clip-rule="evenodd" fill="#31CC73" d="M12.282 5.899a19.82 19.82 0 0 0 1.577 2.251c.959 1.171 2.02 2.231 3.351 2.988 1.675.951 3.373 1.139 5.108.155.057-.032.124-.048.262-.101-1.158 2.901-2.231 5.76-1.871 8.914-.265-.66-.363-1.359-.473-2.051a19.61 19.61 0 0 1-.253-2.73c-.01-.479.034-.957.129-1.425.056-.276-.047-.349-.294-.405-.449-.103-.822-.048-1.234.208-1.171.727-2.479.425-3.377-.729-.201-.258-.369-.543-.538-.825-.14-.234-.217-.519-.396-.713-.349-.379-.749-.71-1.149-1.081-.011.238-.034.501-.034.765 0 1.287-.007 2.574.021 3.861.007.317-.164.312-.37.344-.625.096-.607.097-.678-.529-.171-1.51-.285-3.025-.209-4.543.071-1.415.154-2.831.428-4.354z"/><path fill-rule="evenodd" clip-rule="evenodd" fill="#31CC73" d="M13.204 15.831c1.971.001 3.335 1.901 2.666 3.757-.582 1.611-1.56 3.006-2.515 4.408-.09.133-.166.215-.294.027-.972-1.426-1.973-2.84-2.548-4.483-.645-1.841.731-3.71 2.691-3.709zm-.005 4.519a1.915 1.915 0 0 0 1.949-1.899 1.912 1.912 0 0 0-1.887-1.919 1.916 1.916 0 0 0-1.93 1.877c-.013 1.047.831 1.923 1.868 1.941z"/><path fill-rule="evenodd" clip-rule="evenodd" fill="#32CC73" d="M6.898 14.35c.449 3.557 1.056 7.062 2.531 10.361-.229-.072-.231-.07-.372-.293-1.456-2.273-2.37-4.765-2.97-7.381-.481-2.1-.718-4.231-.809-6.38-.004-.119 0-.237 0-.358.163-.013.197.115.263.188a18.064 18.064 0 0 0 2.432 2.26.63.63 0 0 1 .271.509c.057.745.142 1.487.216 2.249-.454-.484-1.005-.799-1.562-1.155z"/><path fill-rule="evenodd" clip-rule="evenodd" fill="#32CC73" d="M9.945 26.166c-.917-.234-1.702-.688-2.209-1.518-.373-.609-.448-1.258-.15-2.035.132 1.656 1.065 2.527 2.751 2.666 1.893.156 3.62-.414 5.292-1.211 2.264-1.08 4.249-2.582 6.205-4.127.161-.126.321-.255.483-.381.02-.015.048-.016.073-.023.054.068.021.127-.02.184-2.122 2.871-4.718 5.125-8.178 6.234-1.392.447-2.813.576-4.247.211m1.591-12.38c-.336-.717-.964-1.149-1.513-1.653-.048-.044-.098-.099-.162-.076 0 .643-.025 1.281.007 1.916.041.819.124 1.637.197 2.454.013.143.024.261-.109.364-.245.192-.479.399-.724.607-.704-3.115-.813-6.318-.573-9.55.171-.007.187.13.243.207a18.093 18.093 0 0 0 2.331 2.645c.175.162.257.323.251.565-.022.835.021 1.668.052 2.521z"/><path fill-rule="evenodd" clip-rule="evenodd" fill="#FEFEFE" d="M13.199 20.35c-1.037-.018-1.88-.894-1.868-1.941a1.916 1.916 0 0 1 1.93-1.877 1.912 1.912 0 0 1 1.887 1.919 1.916 1.916 0 0 1-1.949 1.899z"/><text transform="translate(27.417 19.414)" font-size="12" fill="#FFF">BeLive</text></svg>